<svg viewBox="0 0 150 40" fill="none" xmlns="http://www.w3.org/2000/svg" class="h-10 lg:block hidden" data-v-0898f5d6=""><g clip-path="url(#clip0_324_306)"><path d="M39.6151 16.0999C38.6705 11.3979 36.0677 7.19185 32.2811 4.2485C28.4946 1.30516 23.7764 -0.179516 18.9867 0.0651132C14.197 0.309742 9.65467 2.26738 6.1877 5.58119C2.72073 8.895 0.559987 13.3443 0.0993403 18.1181C-0.361306 22.8919 0.908816 27.6723 3.67819 31.5878C6.44756 35.5034 10.5318 38.2935 15.1863 39.4494C19.8409 40.6054 24.7559 40.0503 29.0354 37.8853C33.3148 35.7203 36.6738 32.0895 38.5001 27.6549C40.0084 23.9987 40.3964 19.9769 39.6151 16.0999ZM25.2751 30.7899H14.7251L3.7251 20.0249L14.7251 9.25988H25.2751L36.2751 20.0249L25.2751 30.7899Z" fill="#E4F7EA"></path><path d="M20.0002 26.78C18.2025 26.7786 16.4787 26.0639 15.2075 24.7927C13.9363 23.5215 13.2215 21.7977 13.2202 20H16.7202C16.7202 20.6487 16.9126 21.2828 17.273 21.8222C17.6334 22.3616 18.1457 22.782 18.745 23.0303C19.3444 23.2785 20.0039 23.3435 20.6401 23.2169C21.2764 23.0904 21.8608 22.778 22.3195 22.3193C22.7782 21.8606 23.0906 21.2761 23.2172 20.6399C23.3438 20.0036 23.2788 19.3441 23.0305 18.7448C22.7823 18.1454 22.3619 17.6332 21.8225 17.2727C21.2831 16.9123 20.6489 16.72 20.0002 16.72V13.22C21.7984 13.22 23.5229 13.9343 24.7944 15.2058C26.0659 16.4773 26.7802 18.2018 26.7802 20C26.7802 21.7981 26.0659 23.5227 24.7944 24.7942C23.5229 26.0656 21.7984 26.78 20.0002 26.78Z" fill="#E4F7EA"></path><path d="M50.74 28.3848V11.3098H61.13C64.63 11.3098 66.275 13.2348 66.275 15.7248C66.3281 16.545 66.0949 17.3582 65.6153 18.0257C65.1357 18.6932 64.4393 19.1735 63.645 19.3848C65.84 19.7248 67.105 21.3598 67.105 23.5548C67.105 26.5048 64.91 28.3848 61.3 28.3848H50.74ZM54.445 17.9998H60.35C61.85 17.9998 62.57 17.2648 62.57 16.2148C62.57 15.1648 61.885 14.4998 60.325 14.4998H54.445V17.9998ZM54.445 25.1948H60.885C62.545 25.1948 63.425 24.3898 63.425 23.1948C63.425 21.9998 62.52 21.1198 60.79 21.1198H54.445V25.1948Z" fill="#E4F7EA"></path><path d="M68.865 22C68.865 18.17 71.67 15.365 76.13 15.365C80.59 15.365 83.425 18.19 83.425 22C83.425 25.81 80.595 28.655 76.13 28.655C71.665 28.655 68.865 25.845 68.865 22ZM79.79 22C79.7411 21.0663 79.3357 20.187 78.6575 19.5434C77.9793 18.8998 77.08 18.541 76.145 18.541C75.21 18.541 74.3107 18.8998 73.6325 19.5434C72.9543 20.187 72.5489 21.0663 72.5 22C72.535 22.944 72.9345 23.8377 73.6148 24.4932C74.295 25.1487 75.2028 25.5149 76.1475 25.5149C77.0921 25.5149 78 25.1487 78.6802 24.4932C79.3605 23.8377 79.76 22.944 79.795 22H79.79Z" fill="#E4F7EA"></path><path d="M91.3752 15.3848C92.4614 15.3491 93.5245 15.7029 94.3726 16.3823C95.2207 17.0618 95.798 18.022 96.0002 19.0898V15.6748H99.6802V25.7248C99.6802 30.1648 97.1452 32.7748 92.3152 32.7748C90.1267 32.793 87.9752 32.2102 86.0952 31.0898L85.3152 26.8698C87.11 28.6452 89.521 29.659 92.0452 29.6998C95.0702 29.6998 96.0002 28.0448 96.0002 25.4348V23.9348C95.7543 24.9689 95.1607 25.8872 94.3189 26.5361C93.477 27.185 92.4379 27.5252 91.3752 27.4998C87.3752 27.4998 85.2302 24.8448 85.2302 21.5498C85.2302 18.2548 87.4002 15.3848 91.3752 15.3848ZM92.3752 24.6498C94.1752 24.6498 95.3252 23.8948 95.9852 22.7248V20.3348C95.6215 19.7088 95.0919 19.1954 94.4549 18.8513C93.8179 18.5072 93.0982 18.3457 92.3752 18.3848C90.0052 18.3848 88.8752 19.8448 88.8752 21.5298C88.8752 23.2148 90.0002 24.6498 92.3802 24.6498H92.3752Z" fill="#E4F7EA"></path><path d="M108.23 15.385C109.315 15.3517 110.375 15.7066 111.221 16.3858C112.067 17.0651 112.643 18.024 112.845 19.09V15.675H116.525V25.725C116.525 30.165 113.99 32.775 109.16 32.775C106.972 32.7932 104.82 32.2104 102.94 31.09L102.16 26.87C103.955 28.6453 106.366 29.6592 108.89 29.7C111.915 29.7 112.845 28.045 112.845 25.435V23.935C112.6 24.9673 112.008 25.8843 111.168 26.5331C110.328 27.1818 109.291 27.5231 108.23 27.5C104.23 27.5 102.085 24.845 102.085 21.55C102.085 18.255 104.255 15.385 108.23 15.385ZM109.23 24.65C111.03 24.65 112.18 23.895 112.84 22.725V20.335C112.476 19.7089 111.947 19.1955 111.31 18.8515C110.673 18.5074 109.953 18.3459 109.23 18.385C106.86 18.385 105.73 19.845 105.73 21.53C105.73 23.215 106.865 24.65 109.235 24.65H109.23Z" fill="#E4F7EA"></path><path d="M132.795 22.7499H122.6C122.895 24.6299 124.405 25.7499 127.1 25.7499C129.179 25.7872 131.191 25.0185 132.715 23.6049L132.03 27.3349C130.86 28.1649 128.93 28.6999 126.69 28.6999C121.665 28.6999 118.93 25.9699 118.93 22.0449C118.93 18.3349 121.54 15.4099 126.125 15.4099C130.52 15.4099 132.785 18.2599 132.785 22.1399L132.795 22.7499ZM122.695 20.5299H129.33C129.22 19.7697 128.827 19.079 128.231 18.5953C127.634 18.1116 126.877 17.8705 126.11 17.9199C125.322 17.8721 124.544 18.1096 123.917 18.5889C123.289 19.0682 122.856 19.7572 122.695 20.5299Z" fill="#E4F7EA"></path><path d="M140.675 15.385C143.21 15.385 144.77 16.92 145.405 19.04V10.575L149.065 10.115V28.385H145.405V25C144.77 27.145 143.21 28.655 140.675 28.655C136.895 28.675 134.5 25.92 134.5 22C134.5 18.08 136.895 15.385 140.675 15.385ZM141.82 25.605C142.544 25.6167 143.257 25.4352 143.887 25.0793C144.518 24.7233 145.041 24.2058 145.405 23.58V20.5C145.047 19.8748 144.528 19.357 143.902 19.0008C143.276 18.6446 142.565 18.463 141.845 18.475C139.345 18.475 138.135 20.11 138.135 22.04C138.135 23.97 139.355 25.605 141.82 25.605Z" fill="#E4F7EA"></path></g><defs><clipPath id="clip0_324_306"><rect width="149.065" height="40" fill="white"></rect></clipPath></defs></svg>
