<svg width="97" height="49" xmlns="http://www.w3.org/2000/svg"><g fill="none"><path d="M30.459.27v27.798H.26V.27h30.2zm65.486 0v27.798h-30.2V.27h30.2zM63.13.27v27.68H33.053V.27H63.13zM25.65 4.7H5.084v18.935h20.545v-5.283H10.742V9.81H25.65V4.7zm65.49 13.546h-5.498v5.36h5.498v-5.36zM91.097 4.73h-20.54v18.875h5.906v-5.359h9.165l5.5-5.593-.031-7.923zm-32.753-.052H37.86V23.56h20.485v-5.261H43.762V16.74h14.582v-5.246H43.762v-1.56h14.582V4.678zm27.25 5.293v2.68h-9.131V9.97h9.132z" fill="#00E75F"/><path d="M63.83 33.156v.007h11.384v4.116H63.83v1.206h11.372v4.117H63.83v1.133h11.402v4.116H61.006v-.006h-1.823V33.156h4.648zm-29.565 0v.007h11.38v4.116h-11.38v1.206h11.371v4.117h-11.37v5.243h-4.649V33.156h4.648zm57.372-.054.03.028.133.124 4.142 3.86h-.032l.032.031-.057 6.541-4.18 4.093v.039h-.04l-.028.027v-.027H79.905v-.028h-.058V33.102h11.79zm-66.622-.028v14.72h-4.12v-14.72h4.12zm29.453 0v14.72h-4.12v-14.72h4.12zm-38.194-.072v4.119h-5.73v10.642H6.426V37.121H.261v-4.12h16.013zm75.371 10.8.014-6.687h-7.165v6.687h7.151z" fill="#FFF"/></g></svg>