<svg width="188" height="19" viewBox="0 0 188 19" fill="none" xmlns="http://www.w3.org/2000/svg">
<g clip-path="url(#clip0_555_1694)">
<path d="M38.54 17.292V4.02881H48.4588C50.8561 4.02881 52.7785 4.55276 54.227 5.60067C55.6759 6.64214 56.4 8.32531 56.4 10.6505C56.4 12.9758 55.6723 14.6654 54.2174 15.7201C52.7689 16.768 50.8494 17.292 48.4588 17.292H38.54ZM42.4862 14.718H47.5431C49.141 14.718 50.3557 14.407 51.1873 13.7846C52.0253 13.1622 52.4441 12.1179 52.4441 10.6505C52.4441 9.18318 52.0253 8.15173 51.1873 7.53616C50.3557 6.91414 49.141 6.60277 47.5431 6.60277H42.4862V14.718Z" fill="#FEFFFB"/>
<path d="M58.28 17.292V4.02881H74.26V6.60277H62.3301V9.3929H73.35V11.7804H62.3301V14.718H74.26V17.292H58.28Z" fill="#FEFFFB"/>
<path d="M74.2599 17.292L81.4638 10.7293L74.4634 4.02881H79.2334L84.1298 9.05899L89.0361 4.02881H93.7969L86.7671 10.7293L93.9999 17.292H89.2395L84.1298 12.3992L79.0398 17.292H74.2599Z" fill="#FEFFFB"/>
<path d="M103.662 17.292C100.732 17.292 98.389 16.7115 96.6334 15.5507C94.8778 14.3898 94 12.7581 94 10.6556C94 8.55311 94.8778 6.92461 96.6334 5.7701C98.389 4.60924 100.732 4.02881 103.662 4.02881C106.573 4.02881 108.824 4.55426 110.414 5.60551C112.005 6.65043 112.8 7.83066 112.8 9.14623H108.702C108.702 8.59823 108.246 8.03049 107.335 7.44371C106.425 6.85025 105.177 6.55351 103.593 6.55351C101.976 6.55351 100.656 6.91474 99.6329 7.63719C98.6101 8.35965 98.0987 9.36543 98.0987 10.6556C98.0987 11.9388 98.6101 12.9449 99.6329 13.6737C100.663 14.3962 101.982 14.7574 103.593 14.7574C105.171 14.7574 106.414 14.4543 107.325 13.8478C108.243 13.2353 108.702 12.6549 108.702 12.1065H112.8C112.8 13.4224 112.005 14.6154 110.414 15.686C108.83 16.7566 106.58 17.292 103.662 17.292Z" fill="#FEFFFB"/>
<path d="M113.74 17.292V4.02881H117.566V9.50099H126.834V4.02881H130.66V17.292H126.834V12.0653H117.566V17.292H113.74Z" fill="#FEFFFB"/>
<path d="M133.48 17.292V4.02881H148.52V6.60277H137.292V9.3929H147.664V11.7804H137.292V14.718H148.52V17.292H133.48Z" fill="#FEFFFB"/>
<path d="M160.063 17.292C157.133 17.292 154.79 16.7115 153.034 15.5507C151.278 14.3898 150.4 12.7581 150.4 10.6556C150.4 8.55311 151.278 6.92461 153.034 5.7701C154.79 4.60924 157.133 4.02881 160.063 4.02881C162.973 4.02881 165.224 4.55426 166.814 5.60551C168.404 6.65043 169.2 7.83066 169.2 9.14623H165.101C165.101 8.59823 164.646 8.03049 163.735 7.44371C162.824 6.85025 161.578 6.55351 159.993 6.55351C158.376 6.55351 157.056 6.91474 156.033 7.63719C155.01 8.35965 154.499 9.36543 154.499 10.6556C154.499 11.9388 155.01 12.9449 156.033 13.6737C157.063 14.3962 158.383 14.7574 159.993 14.7574C161.57 14.7574 162.815 14.4543 163.726 13.8478C164.643 13.2353 165.101 12.6549 165.101 12.1065H169.2C169.2 13.4224 168.404 14.6154 166.814 15.686C165.23 16.7566 162.979 17.292 160.063 17.292Z" fill="#FEFFFB"/>
<path d="M171.08 17.292V4.02881H175.049V9.77621L183.206 4.02881H187.971L178.694 10.6702L188 17.292H183.235L175.049 11.5546V17.292H171.08Z" fill="#FEFFFB"/>
<path d="M30.8133 1.91246C30.3931 0.895766 29.4125 0.239258 28.3147 0.239258H25.2198C24.5078 0.239258 23.8113 0.528534 23.308 1.033L8.80378 15.5705C8.7816 15.592 8.74711 15.592 8.7267 15.5716L2.66759 9.59274C2.64718 9.57334 2.64085 9.56698 2.65457 9.53241C2.669 9.49784 2.67815 9.49784 2.70596 9.49784L6.1767 9.51442L9.61612 12.9522L11.4889 11.0751L8.04987 7.63765C7.53951 7.12543 6.86022 6.84321 6.13763 6.84321H2.70596C1.60325 6.84321 0.620204 7.50431 0.202771 8.52771C-0.214661 9.55076 0.0243211 10.7128 0.809911 11.4864L6.86972 17.4656C7.3938 17.9817 8.07908 18.2393 8.76471 18.2393C9.45809 18.2393 10.1518 17.9754 10.6773 17.4483L25.2209 2.8953H28.3158C28.3436 2.8953 28.3524 2.8953 28.3671 2.92917C28.3812 2.96374 28.3752 2.97009 28.3555 2.98985L15.9223 15.4492C15.9047 15.4679 15.8628 15.4675 15.8442 15.4492L15.1617 14.7655L13.2889 16.6426L13.9714 17.327C14.4828 17.8389 15.1613 18.1207 15.8836 18.1207C16.6058 18.1207 17.2851 17.8389 17.7955 17.327L30.2269 4.86661C31.003 4.08839 31.2328 2.92916 30.8126 1.91282H30.8133V1.91246Z" fill="white"/>
<path d="M30.8133 1.91246C30.3931 0.895766 29.4125 0.239258 28.3147 0.239258H25.2198C24.5078 0.239258 23.8113 0.528534 23.308 1.033L8.80378 15.5705C8.7816 15.592 8.74711 15.592 8.7267 15.5716L2.66759 9.59274C2.64718 9.57334 2.64085 9.56698 2.65457 9.53241C2.669 9.49784 2.67815 9.49784 2.70596 9.49784L6.1767 9.51442L9.61612 12.9522L11.4889 11.0751L8.04987 7.63765C7.53951 7.12543 6.86022 6.84321 6.13763 6.84321H2.70596C1.60325 6.84321 0.620204 7.50431 0.202771 8.52771C-0.214661 9.55076 0.0243211 10.7128 0.809911 11.4864L6.86972 17.4656C7.3938 17.9817 8.07908 18.2393 8.76471 18.2393C9.45809 18.2393 10.1518 17.9754 10.6773 17.4483L25.2209 2.8953H28.3158C28.3436 2.8953 28.3524 2.8953 28.3671 2.92917C28.3812 2.96374 28.3752 2.97009 28.3555 2.98985L15.9223 15.4492C15.9047 15.4679 15.8628 15.4675 15.8442 15.4492L15.1617 14.7655L13.2889 16.6426L13.9714 17.327C14.4828 17.8389 15.1613 18.1207 15.8836 18.1207C16.6058 18.1207 17.2851 17.8389 17.7955 17.327L30.2269 4.86661C31.003 4.08839 31.2328 2.92916 30.8126 1.91282H30.8133V1.91246Z" fill="url(#paint0_linear_555_1694)"/>
</g>
<defs>
<linearGradient id="paint0_linear_555_1694" x1="-0.000100213" y1="9.23873" x2="31.0204" y2="9.23873" gradientUnits="userSpaceOnUse">
<stop offset="0.041" stop-color="white"/>
<stop offset="0.823" stop-color="#5EC2D8"/>
</linearGradient>
<clipPath id="clip0_555_1694">
<rect width="188" height="18" fill="white" transform="translate(0 0.239258)"/>
</clipPath>
</defs>
</svg>
